<?xml version="1.0" encoding="utf-8"?>
<!-- Generator: Adobe Illustrator 25.2.0, SVG Export Plug-In . SVG Version: 6.00 Build 0)  -->
<svg version="1.1" id="Capa_1" xmlns="http://www.w3.org/2000/svg" xmlns:xlink="http://www.w3.org/1999/xlink" x="0px" y="0px"
	 viewBox="0 0 43.7 43.7" style="enable-background:new 0 0 43.7 43.7;" xml:space="preserve">
<style type="text/css">
	.st0{fill:#FDEE23;}
</style>
<g>
	<path class="st0" d="M41.4,29.2V17.3c0.1-2.6-1-5.2-3-6.9c-2.3-1.8-5.1-2.7-8-2.5c-2.9-0.1-6.7,0.1-9,2.4c-2.6,2-2.2,4.8-2.5,7.3
		h7.2c0-0.2-0.1-0.6,0.6-2.1c0.4-0.7,1.4-1.7,3.3-1.6c2.1,0,3.3,1.2,3.3,3.6v1.4h-2.5c-4,0-7,0.7-9.1,2.2s-3.2,4-3.1,6.6
		c0,2.2,0.9,4.4,2.6,5.8c1.7,1.5,4,2.3,6.2,2.2c2.4,0.1,4.7-1,6.2-2.9c0.2,0.8,0.9,2.1,1.2,2.9h7.7C41.7,34,41.4,31.1,41.4,29.2z
		 M33.4,28.3c0,0-1.6,2.7-4.1,2.3c-2.3-0.3-3.4-2.1-3.4-4.4c0-1.2,0.7-2,1.8-2.6c2.1-1.2,5.6-0.6,5.6-0.6v5.3H33.4z"/>
	<path d="M25.9,26.2c0,2.6-0.5,3.5-1.6,5c-1,1.5-2.5,2.6-4.3,3.4c-2,0.8-4.1,1.2-6.3,1.2c-3.5,0.2-6.8-1.1-9.2-3.5
		c-2.2-2.3-3.3-5.6-3.3-9.8v-1.4c-0.1-2.4,0.5-4.8,1.5-7c0.9-1.9,2.4-3.5,4.3-4.6c2-1.1,4.3-1.7,6.6-1.6c3.1-0.1,6.2,0.8,8.6,2.6
		c2.2,1.8,3.6,4.4,3.7,7.2h-7.1c0.3-1.3-0.2-2.6-1.2-3.6c-1.1-0.8-2.5-1.2-3.9-1.1c-1.6-0.1-3.1,0.6-3.9,1.8C9,16.1,8.6,18,8.6,20.7
		v1.9c0,2.9,0.4,5,1.2,6.2c0.9,1.3,2.5,2,4.1,1.9c1.3,0.1,2.7-0.3,3.8-1.1c0.9-0.9,0.9-2.1,1.1-3.4H25.9z"/>
</g>
</svg>
